<svg width="38" height="38" viewBox="0 0 38 38" fill="none" xmlns="http://www.w3.org/2000/svg">
<path d="M36.2188 19H1.78125C1.62378 19 1.47276 18.9374 1.36141 18.8261C1.25006 18.7147 1.1875 18.5637 1.1875 18.4062C1.1875 18.2488 1.25006 18.0978 1.36141 17.9864C1.47276 17.8751 1.62378 17.8125 1.78125 17.8125H36.2188C36.3762 17.8125 36.5272 17.8751 36.6386 17.9864C36.7499 18.0978 36.8125 18.2488 36.8125 18.4062C36.8125 18.5637 36.7499 18.7147 36.6386 18.8261C36.5272 18.9374 36.3762 19 36.2188 19Z" fill="#3B9E29"/>
<path d="M19 36.2188C18.8425 36.2188 18.6915 36.1562 18.5802 36.0448C18.4688 35.9335 18.4062 35.7825 18.4062 35.625V18.4062C18.4062 18.2488 18.4688 18.0978 18.5802 17.9864C18.6915 17.8751 18.8425 17.8125 19 17.8125C19.1575 17.8125 19.3085 17.8751 19.4198 17.9864C19.5312 18.0978 19.5938 18.2488 19.5938 18.4062V35.625C19.5938 35.7825 19.5312 35.9335 19.4198 36.0448C19.3085 36.1562 19.1575 36.2188 19 36.2188Z" fill="#3B9E29"/>
<path d="M18.968 36.1594C18.8361 36.1599 18.7078 36.1164 18.6033 36.0358C18.4988 35.9553 18.4241 35.8422 18.391 35.7145C18.358 35.5868 18.3684 35.4517 18.4206 35.3306C18.4728 35.2094 18.5639 35.1091 18.6795 35.0455C21.6532 33.4018 24.1324 30.9916 25.8594 28.0654C27.5864 25.1393 28.4983 21.804 28.5001 18.4062C28.5001 18.2488 28.5626 18.0978 28.674 17.9864C28.7853 17.8751 28.9364 17.8125 29.0938 17.8125C29.2513 17.8125 29.4023 17.8751 29.5137 17.9864C29.625 18.0978 29.6876 18.2488 29.6876 18.4062C29.6861 22.0161 28.7177 25.5597 26.8831 28.6686C25.0485 31.7774 22.4147 34.3382 19.2554 36.0846C19.1676 36.1337 19.0686 36.1595 18.968 36.1594Z" fill="#3B9E29"/>
<path d="M31.471 30.8641C31.4148 30.8642 31.3588 30.8563 31.3048 30.8403C23.402 28.5389 14.77 28.5235 6.85892 30.7916C6.78322 30.8157 6.70346 30.8243 6.62437 30.817C6.54527 30.8097 6.46844 30.7866 6.39844 30.7491C6.32843 30.7116 6.26666 30.6604 6.21679 30.5985C6.16693 30.5367 6.12997 30.4655 6.10812 30.3891C6.08626 30.3128 6.07996 30.2328 6.08957 30.154C6.09918 30.0751 6.12451 29.999 6.16407 29.9301C6.20363 29.8612 6.25661 29.801 6.31987 29.7529C6.38313 29.7049 6.45538 29.67 6.53236 29.6504C14.6596 27.3182 23.5243 27.336 31.6373 29.7003C31.7745 29.7403 31.8927 29.8285 31.9701 29.9486C32.0475 30.0688 32.079 30.2128 32.0588 30.3543C32.0386 30.4958 31.968 30.6252 31.8601 30.7189C31.7521 30.8125 31.614 30.8641 31.471 30.8641Z" fill="#3B9E29"/>
<path d="M19.0297 36.1582C18.9291 36.1583 18.8301 36.1325 18.7423 36.0834C15.5836 34.3369 12.9502 31.7762 11.1161 28.6675C9.28189 25.5589 8.31383 22.0157 8.3125 18.4062C8.3125 18.2488 8.37506 18.0978 8.48641 17.9864C8.59776 17.8751 8.74878 17.8125 8.90625 17.8125C9.06372 17.8125 9.21474 17.8751 9.32609 17.9864C9.43744 18.0978 9.5 18.2488 9.5 18.4062C9.5 25.3199 13.262 31.6944 19.3182 35.0443C19.4338 35.1079 19.5249 35.2082 19.5771 35.3294C19.6294 35.4505 19.6397 35.5856 19.6067 35.7133C19.5736 35.8411 19.4989 35.9541 19.3944 36.0347C19.2899 36.1152 19.1616 36.1587 19.0297 36.1582Z" fill="#3B9E29"/>
<path d="M19 36.2188C9.17819 36.2188 1.1875 28.2281 1.1875 18.4062C1.1875 18.2488 1.25006 18.0978 1.36141 17.9864C1.47276 17.8751 1.62378 17.8125 1.78125 17.8125C1.93872 17.8125 2.08974 17.8751 2.20109 17.9864C2.31244 18.0978 2.375 18.2488 2.375 18.4062C2.375 27.5737 9.8325 35.0312 19 35.0312C28.1675 35.0312 35.625 27.5737 35.625 18.4062C35.625 18.2488 35.6876 18.0978 35.7989 17.9864C35.9103 17.8751 36.0613 17.8125 36.2188 17.8125C36.3762 17.8125 36.5272 17.8751 36.6386 17.9864C36.7499 18.0978 36.8125 18.2488 36.8125 18.4062C36.8125 28.2281 28.8218 36.2188 19 36.2188ZM19 7.125C17.3624 7.125 16.0312 5.79262 16.0312 4.15625C16.0312 2.51987 17.3624 1.1875 19 1.1875C20.6376 1.1875 21.9688 2.51987 21.9688 4.15625C21.9688 5.79262 20.6376 7.125 19 7.125ZM19 2.375C18.0179 2.375 17.2188 3.17419 17.2188 4.15625C17.2188 5.13831 18.0179 5.9375 19 5.9375C19.9821 5.9375 20.7812 5.13831 20.7812 4.15625C20.7812 3.17419 19.9821 2.375 19 2.375ZM23.7797 11.1459C23.6801 11.1459 23.5822 11.1209 23.4948 11.0732C23.4075 11.0255 23.3335 10.9565 23.2798 10.8728C23.0126 10.4521 22.6435 10.1057 22.2067 9.86568C21.7699 9.62571 21.2796 9.49992 20.7812 9.5H17.2188C16.2308 9.5 15.3116 9.98925 14.7571 10.8098C14.7152 10.8782 14.6599 10.9373 14.5945 10.9837C14.5291 11.0301 14.455 11.0628 14.3767 11.0798C14.2983 11.0968 14.2173 11.0978 14.1386 11.0826C14.0599 11.0675 13.985 11.0365 13.9186 10.9917C13.8521 10.9468 13.7955 10.8889 13.752 10.8216C13.7085 10.7542 13.6791 10.6788 13.6656 10.5998C13.6521 10.5207 13.6547 10.4398 13.6733 10.3618C13.6919 10.2838 13.7261 10.2104 13.7738 10.146C14.1536 9.5813 14.6665 9.1187 15.2673 8.79896C15.868 8.47922 16.5382 8.31216 17.2188 8.3125H20.7812C22.2003 8.3125 23.5089 9.02975 24.2796 10.2315C24.3372 10.3212 24.3695 10.4248 24.3733 10.5313C24.377 10.6379 24.352 10.7434 24.3009 10.837C24.2497 10.9305 24.1743 11.0085 24.0826 11.0629C23.9909 11.1172 23.8863 11.1459 23.7797 11.1459ZM27.3125 8.3125C25.6749 8.3125 24.3438 6.98012 24.3438 5.34375C24.3438 3.70738 25.6749 2.375 27.3125 2.375C28.9501 2.375 30.2812 3.70738 30.2812 5.34375C30.2812 6.98012 28.9501 8.3125 27.3125 8.3125ZM27.3125 3.5625C26.3304 3.5625 25.5312 4.36169 25.5312 5.34375C25.5312 6.32581 26.3304 7.125 27.3125 7.125C28.2946 7.125 29.0938 6.32581 29.0938 5.34375C29.0938 4.36169 28.2946 3.5625 27.3125 3.5625Z" fill="#3B9E29"/>
<path d="M32.6562 16.625C32.4988 16.625 32.3478 16.5624 32.2364 16.4511C32.1251 16.3397 32.0625 16.1887 32.0625 16.0312V13.6562C32.0625 12.0199 30.7313 10.6875 29.0938 10.6875H25.5312C24.7442 10.6884 23.9896 11.0015 23.4331 11.5581C22.8765 12.1146 22.5634 12.8692 22.5625 13.6562V16.0312C22.5625 16.1887 22.4999 16.3397 22.3886 16.4511C22.2772 16.5624 22.1262 16.625 21.9688 16.625C21.8113 16.625 21.6603 16.5624 21.5489 16.4511C21.4376 16.3397 21.375 16.1887 21.375 16.0312V13.6562C21.375 11.3644 23.2394 9.5 25.5312 9.5H29.0938C31.3856 9.5 33.25 11.3644 33.25 13.6562V16.0312C33.25 16.1887 33.1874 16.3397 33.0761 16.4511C32.9647 16.5624 32.8137 16.625 32.6562 16.625ZM10.6875 8.3125C9.04994 8.3125 7.71875 6.98012 7.71875 5.34375C7.71875 3.70737 9.04994 2.375 10.6875 2.375C12.3251 2.375 13.6562 3.70737 13.6562 5.34375C13.6562 6.98012 12.3251 8.3125 10.6875 8.3125ZM10.6875 3.5625C9.70544 3.5625 8.90625 4.36169 8.90625 5.34375C8.90625 6.32581 9.70544 7.125 10.6875 7.125C11.6696 7.125 12.4688 6.32581 12.4688 5.34375C12.4688 4.36169 11.6696 3.5625 10.6875 3.5625ZM16.0312 16.625C15.8738 16.625 15.7228 16.5624 15.6114 16.4511C15.5001 16.3397 15.4375 16.1887 15.4375 16.0312V13.6562C15.4375 12.0199 14.1063 10.6875 12.4688 10.6875H8.90625C8.11918 10.6884 7.36461 11.0015 6.80807 11.5581C6.25152 12.1146 5.93844 12.8692 5.9375 13.6562V16.0312C5.9375 16.1887 5.87494 16.3397 5.76359 16.4511C5.65224 16.5624 5.50122 16.625 5.34375 16.625C5.18628 16.625 5.03526 16.5624 4.92391 16.4511C4.81256 16.3397 4.75 16.1887 4.75 16.0312V13.6562C4.75 11.3644 6.61438 9.5 8.90625 9.5H12.4688C14.7606 9.5 16.625 11.3644 16.625 13.6562V16.0312C16.625 16.1887 16.5624 16.3397 16.4511 16.4511C16.3397 16.5624 16.1887 16.625 16.0312 16.625Z" fill="#3B9E29"/>
<path d="M13.6562 16.625C13.4988 16.625 13.3478 16.5624 13.2364 16.4511C13.1251 16.3397 13.0625 16.1887 13.0625 16.0312V13.6562C13.0625 13.4988 13.1251 13.3478 13.2364 13.2364C13.3478 13.1251 13.4988 13.0625 13.6562 13.0625C13.8137 13.0625 13.9647 13.1251 14.0761 13.2364C14.1874 13.3478 14.25 13.4988 14.25 13.6562V16.0312C14.25 16.1887 14.1874 16.3397 14.0761 16.4511C13.9647 16.5624 13.8137 16.625 13.6562 16.625ZM7.71875 16.625C7.56128 16.625 7.41025 16.5624 7.29891 16.4511C7.18756 16.3397 7.125 16.1887 7.125 16.0312V13.6562C7.125 13.4988 7.18756 13.3478 7.29891 13.2364C7.41025 13.1251 7.56128 13.0625 7.71875 13.0625C7.87622 13.0625 8.02725 13.1251 8.13859 13.2364C8.24994 13.3478 8.3125 13.4988 8.3125 13.6562V16.0312C8.3125 16.1887 8.24994 16.3397 8.13859 16.4511C8.02725 16.5624 7.87622 16.625 7.71875 16.625ZM30.2812 16.625C30.1238 16.625 29.9728 16.5624 29.8614 16.4511C29.7501 16.3397 29.6875 16.1887 29.6875 16.0312V13.6562C29.6875 13.4988 29.7501 13.3478 29.8614 13.2364C29.9728 13.1251 30.1238 13.0625 30.2812 13.0625C30.4387 13.0625 30.5897 13.1251 30.7011 13.2364C30.8124 13.3478 30.875 13.4988 30.875 13.6562V16.0312C30.875 16.1887 30.8124 16.3397 30.7011 16.4511C30.5897 16.5624 30.4387 16.625 30.2812 16.625ZM24.3438 16.625C24.1863 16.625 24.0353 16.5624 23.9239 16.4511C23.8126 16.3397 23.75 16.1887 23.75 16.0312V13.6562C23.75 13.4988 23.8126 13.3478 23.9239 13.2364C24.0353 13.1251 24.1863 13.0625 24.3438 13.0625C24.5012 13.0625 24.6522 13.1251 24.7636 13.2364C24.8749 13.3478 24.9375 13.4988 24.9375 13.6562V16.0312C24.9375 16.1887 24.8749 16.3397 24.7636 16.4511C24.6522 16.5624 24.5012 16.625 24.3438 16.625ZM1.78125 13.1219C1.4535 13.1219 1.1875 12.9153 1.1875 12.5875V12.4688C1.1875 12.3113 1.25006 12.1603 1.36141 12.0489C1.47276 11.9376 1.62378 11.875 1.78125 11.875C1.93872 11.875 2.08974 11.9376 2.20109 12.0489C2.31244 12.1603 2.375 12.3113 2.375 12.4688C2.375 12.7965 2.109 13.1219 1.78125 13.1219ZM1.78125 15.4969C1.4535 15.4969 1.1875 15.2903 1.1875 14.9625V14.8438C1.1875 14.6863 1.25006 14.5353 1.36141 14.4239C1.47276 14.3126 1.62378 14.25 1.78125 14.25C1.93872 14.25 2.08974 14.3126 2.20109 14.4239C2.31244 14.5353 2.375 14.6863 2.375 14.8438C2.375 15.1715 2.109 15.4969 1.78125 15.4969ZM1.78125 19.1188C1.62378 19.1188 1.47276 19.0562 1.36141 18.9448C1.25006 18.8335 1.1875 18.6825 1.1875 18.525V17.2188C1.1875 17.0613 1.25006 16.9103 1.36141 16.7989C1.47276 16.6876 1.62378 16.625 1.78125 16.625C1.93872 16.625 2.08974 16.6876 2.20109 16.7989C2.31244 16.9103 2.375 17.0613 2.375 17.2188V18.525C2.375 18.6825 2.31244 18.8335 2.20109 18.9448C2.08974 19.0562 1.93872 19.1188 1.78125 19.1188ZM36.2188 13.1219C35.891 13.1219 35.625 12.9153 35.625 12.5875V12.4688C35.625 12.3113 35.6876 12.1603 35.7989 12.0489C35.9103 11.9376 36.0613 11.875 36.2188 11.875C36.3762 11.875 36.5272 11.9376 36.6386 12.0489C36.7499 12.1603 36.8125 12.3113 36.8125 12.4688C36.8125 12.7965 36.5465 13.1219 36.2188 13.1219ZM36.2188 15.4969C35.891 15.4969 35.625 15.2903 35.625 14.9625V14.8438C35.625 14.6863 35.6876 14.5353 35.7989 14.4239C35.9103 14.3126 36.0613 14.25 36.2188 14.25C36.3762 14.25 36.5272 14.3126 36.6386 14.4239C36.7499 14.5353 36.8125 14.6863 36.8125 14.8438C36.8125 15.1715 36.5465 15.4969 36.2188 15.4969ZM36.2188 19.1188C36.0613 19.1188 35.9103 19.0562 35.7989 18.9448C35.6876 18.8335 35.625 18.6825 35.625 18.525V17.2188C35.625 17.0613 35.6876 16.9103 35.7989 16.7989C35.9103 16.6876 36.0613 16.625 36.2188 16.625C36.3762 16.625 36.5272 16.6876 36.6386 16.7989C36.7499 16.9103 36.8125 17.0613 36.8125 17.2188V18.525C36.8125 18.6825 36.7499 18.8335 36.6386 18.9448C36.5272 19.0562 36.3762 19.1188 36.2188 19.1188Z" fill="#3B9E29"/>
</svg>
