<svg width="24" height="24" viewBox="0 0 24 24" fill="none" xmlns="http://www.w3.org/2000/svg">
<path d="M10.1172 17.9867H2.88306" stroke="#3B9E29" stroke-width="1.5" stroke-linecap="round" stroke-linejoin="round"/>
<path fill-rule="evenodd" clip-rule="evenodd" d="M21.1179 17.9864C21.1179 19.577 19.8285 20.8664 18.2379 20.8664C16.6473 20.8664 15.3579 19.577 15.3579 17.9864C15.3579 16.3947 16.6473 15.1064 18.2379 15.1064C19.8285 15.1064 21.1179 16.3947 21.1179 17.9864Z" stroke="#3B9E29" stroke-width="1.5" stroke-linecap="round" stroke-linejoin="round"/>
<path d="M13.8826 6.26172H21.1179" stroke="#3B9E29" stroke-width="1.5" stroke-linecap="round" stroke-linejoin="round"/>
<path fill-rule="evenodd" clip-rule="evenodd" d="M2.88257 6.26184C2.88257 7.8536 4.17198 9.14184 5.76257 9.14184C7.35316 9.14184 8.64257 7.8536 8.64257 6.26184C8.64257 4.67125 7.35316 3.38184 5.76257 3.38184C4.17198 3.38184 2.88257 4.67125 2.88257 6.26184Z" stroke="#3B9E29" stroke-width="1.5" stroke-linecap="round" stroke-linejoin="round"/>
</svg>
