<svg width="38" height="38" viewBox="0 0 38 38" fill="none" xmlns="http://www.w3.org/2000/svg">
<path d="M37.6326 17.6989C37.2952 17.1663 36.7703 16.7968 36.155 16.6587C35.5393 16.5212 34.9072 16.6307 34.3745 16.9681C33.8417 17.3056 33.4722 17.8303 33.3343 18.4457L32.3074 23.023C32.1127 22.9097 31.9004 22.8247 31.6742 22.7739C31.3562 22.7028 31.0338 22.7043 30.7246 22.7706V19.5315H31.6911C31.7731 19.5314 31.854 19.5132 31.9281 19.4781C32.0022 19.4429 32.0676 19.3918 32.1195 19.3283C32.1714 19.2648 32.2085 19.1905 32.2282 19.1109C32.2479 19.0313 32.2497 18.9483 32.2334 18.868L31.9133 17.2916C31.9639 17.2966 32.015 17.2998 32.0667 17.2998C32.1715 17.2998 32.2779 17.2893 32.3846 17.2674C32.794 17.1831 33.1459 16.9446 33.3758 16.5954C33.6057 16.2464 33.6858 15.8287 33.6014 15.4194L32.5259 10.1973C32.1462 8.35368 30.5044 7.01562 28.6222 7.01562H26.9788C25.6609 7.01562 24.4654 7.66178 23.695 8.79387L20.737 13.2548C20.7164 13.2542 20.6963 13.2516 20.6755 13.2516H17.3254C17.3094 13.2516 17.2939 13.2536 17.2781 13.254L14.5073 8.71286C13.8934 7.66588 12.7581 7.01562 11.5444 7.01562H7.80153C5.90761 7.01562 4.36663 8.5566 4.36663 10.4505V15.3916C4.36663 16.4796 5.13697 17.3904 6.16054 17.6091V22.8203C5.99805 22.8701 5.84134 22.9385 5.69329 23.0247L4.66607 18.4456C4.38107 17.1753 3.11537 16.3741 1.84541 16.6585C1.23011 16.7967 0.705256 17.1662 0.367664 17.6988C0.0300717 18.2317 -0.0796723 18.864 0.0583437 19.4795L2.10183 28.5875C2.34032 29.6498 2.97796 30.5559 3.89786 31.1386L11.1429 35.7284C11.7658 36.123 12.1667 36.7696 12.2428 37.5024C12.2723 37.7871 12.5126 37.9987 12.7926 37.9987C12.8118 37.9987 12.8309 37.9978 12.8504 37.9958C13.1544 37.9642 13.3752 37.6921 13.3436 37.3883C13.2323 36.3162 12.6461 35.3705 11.7353 34.7935L4.49021 30.2037C3.82019 29.7791 3.35553 29.119 3.18179 28.345L1.1383 19.237C1.06489 18.9102 1.12326 18.5743 1.30262 18.2911C1.48198 18.0081 1.76074 17.812 2.0877 17.7386C2.76227 17.5871 3.43472 18.013 3.58611 18.688L4.78646 24.0383C4.59281 24.4718 4.54113 24.9531 4.64692 25.4246C4.77673 26.0029 5.1239 26.4961 5.63249 26.8182L10.4637 29.765C10.7246 29.9238 11.065 29.8416 11.2243 29.5808C11.3834 29.3198 11.3009 28.9793 11.04 28.82L6.21678 25.8782C5.96598 25.7194 5.79194 25.4722 5.72688 25.1824C5.66182 24.8925 5.7135 24.5946 5.8725 24.3436C6.20051 23.8258 6.88922 23.6712 7.4083 24.0001L11.3636 26.4928C11.417 26.5265 11.4758 26.5505 11.5372 26.5645C12.5502 26.7923 13.4916 27.1401 14.3354 27.5979C16.141 28.5779 17.4576 30.3925 17.9477 32.5766L18.4468 34.8014V37.4459C18.4468 37.7515 18.6946 37.9993 19.0003 37.9993C19.306 37.9993 19.5537 37.7517 19.5537 37.4459V34.8012L20.0529 32.5764C20.5428 30.3925 21.8594 28.5779 23.6652 27.5979C24.5089 27.14 25.4504 26.7923 26.4633 26.5645C26.5249 26.5507 26.5836 26.5265 26.6369 26.4928L30.5933 23.9993C30.8444 23.8405 31.1419 23.7891 31.4319 23.8536C31.7218 23.9186 31.9689 24.0927 32.1279 24.3436C32.2869 24.5946 32.3386 24.8925 32.2735 25.1824C32.2085 25.4722 32.0344 25.7194 31.7915 25.8732L26.9604 28.82C26.6994 28.9793 26.617 29.3198 26.7761 29.5808C26.9351 29.8416 27.2756 29.924 27.5368 29.765L32.3758 26.8132C32.8765 26.4961 33.2237 26.0029 33.3535 25.4246C33.4593 24.9531 33.4076 24.4718 33.214 24.0383L34.4143 18.6879C34.4876 18.3611 34.6838 18.0823 34.9668 17.9029C35.2498 17.7236 35.5859 17.6649 35.9127 17.7386C36.2397 17.8119 36.5184 18.0081 36.6976 18.2911C36.877 18.5743 36.9354 18.9102 36.8619 19.237L34.8185 28.345C34.6449 29.1192 34.1801 29.7791 33.5101 30.2037L26.265 34.7935C25.3543 35.3705 24.7681 36.3161 24.6567 37.3881C24.625 37.6921 24.8459 37.9642 25.1499 37.996C25.1694 37.9979 25.1887 37.9988 25.2078 37.9988C25.4876 37.9988 25.728 37.7871 25.7574 37.5027C25.8336 36.7698 26.2346 36.123 26.8573 35.7284L34.1024 31.1386C35.0223 30.5559 35.6601 29.6499 35.8984 28.5875L37.9419 19.4793C38.0799 18.8639 37.97 18.2317 37.6326 17.6988V17.6989ZM29.6178 23.3059L28.6781 23.8981C28.4833 23.7887 28.3538 23.5806 28.3538 23.3477V19.5315H29.6178V23.3059ZM25.983 19.5315H27.247V23.3477C27.247 23.6963 26.9636 23.9799 26.615 23.9799C26.2665 23.9799 25.983 23.6964 25.983 23.3477V19.5315ZM24.6138 9.41099C25.171 8.59202 26.033 8.12249 26.9788 8.12249H28.6222C29.9818 8.12249 31.1676 9.08891 31.4418 10.4207L32.5173 15.6428C32.542 15.7625 32.5186 15.8847 32.4514 15.9867C32.384 16.0888 32.2811 16.1586 32.1615 16.1832C31.9121 16.2344 31.6674 16.0759 31.6164 15.8292L30.6008 10.8266C30.54 10.5268 30.2481 10.3342 29.9482 10.3943C29.6488 10.4552 29.4553 10.7474 29.5161 11.0468L30.5324 16.052V16.0529C30.5324 16.0535 30.5327 16.0542 30.5328 16.0546L31.0141 18.4247H24.587L26.0826 11.059V11.0584L26.0848 11.0468C26.0873 11.0348 26.0868 11.0228 26.0885 11.0108C26.0915 10.9884 26.0949 10.9664 26.0952 10.9439C26.0953 10.926 26.0931 10.9086 26.0915 10.891C26.09 10.8732 26.0894 10.8553 26.0861 10.8377C26.0827 10.8194 26.0771 10.8021 26.0719 10.7845C26.0672 10.7677 26.0631 10.7509 26.0567 10.7346C26.0503 10.7183 26.0418 10.7031 26.0339 10.6876C26.0257 10.6712 26.0181 10.6548 26.0081 10.6392C25.9985 10.6241 25.9868 10.6106 25.9759 10.5966C25.9649 10.5826 25.9547 10.5682 25.9423 10.5552C25.9272 10.5394 25.9099 10.5258 25.8929 10.5118C25.8831 10.5037 25.8751 10.4944 25.8648 10.487C25.8632 10.4859 25.8616 10.4853 25.8602 10.4843C25.8416 10.4712 25.821 10.4609 25.8006 10.4501C25.7881 10.4435 25.7763 10.4353 25.7635 10.4298C25.7495 10.4238 25.7343 10.4203 25.7197 10.4153C25.6991 10.4083 25.6787 10.4005 25.6577 10.396C25.6559 10.3955 25.6544 10.3947 25.6526 10.3943C25.641 10.392 25.6298 10.3925 25.6184 10.3909C25.595 10.3877 25.5715 10.3842 25.548 10.3841C25.5337 10.3841 25.52 10.3859 25.506 10.387C25.4843 10.3885 25.4626 10.3896 25.441 10.3937C25.4265 10.3964 25.413 10.401 25.3989 10.4048C25.3785 10.4102 25.358 10.4154 25.3384 10.4233C25.3248 10.4286 25.3124 10.4358 25.2993 10.4422C25.2805 10.4514 25.2616 10.4602 25.2438 10.4716C25.23 10.4805 25.2177 10.4913 25.2048 10.5013C25.1899 10.5128 25.1745 10.5236 25.1607 10.5369C25.1446 10.5522 25.1306 10.5698 25.1165 10.5872C25.1089 10.5964 25.0999 10.6042 25.0927 10.6141L25.0859 10.6235C25.0859 10.6235 25.0854 10.6241 25.0853 10.6244L22.4709 14.2715C22.3101 14.0044 22.0932 13.7751 21.8343 13.6025L24.6136 9.41084L24.6138 9.41099ZM21.4504 19.6885H21.0831C20.7775 19.6885 20.5297 19.9361 20.5297 20.2419V23.4917C20.5297 23.7609 20.3108 23.9799 20.0415 23.9799C19.7721 23.9799 19.5546 23.7618 19.5536 23.4935V20.5102C19.5536 20.2045 19.3058 19.9568 19.0001 19.9568H18.9998C18.6942 19.9568 18.4464 20.2044 18.4464 20.5102V23.4935C18.4453 23.7618 18.2271 23.9799 17.9585 23.9799C17.6899 23.9799 17.4704 23.7609 17.4704 23.4917V20.2419C17.4704 19.9362 17.2226 19.6885 16.917 19.6885H16.55C16.4315 19.6885 16.335 19.5921 16.335 19.4735V15.3484C16.335 14.8024 16.7791 14.3583 17.3249 14.3583H20.675C21.2208 14.3583 21.6648 14.8023 21.6648 15.3484V19.4735C21.6648 19.5921 21.5683 19.6885 21.4499 19.6885H21.4504ZM7.26725 22.7698V10.9366C7.26725 10.6309 7.01949 10.3832 6.71382 10.3832C6.40814 10.3832 6.16038 10.6309 6.16038 10.9366V16.4509C5.75606 16.2689 5.47319 15.8631 5.47319 15.3917V10.4507C5.47319 9.16703 6.51758 8.12249 7.80122 8.12249H11.5441C12.3667 8.12249 13.1361 8.56329 13.5572 9.28118L16.1865 13.5904C15.9296 13.7573 15.7124 13.979 15.5496 14.2387L13.3948 10.8007C13.3933 10.7983 13.3912 10.7965 13.3897 10.794C13.3776 10.7755 13.3632 10.7588 13.3491 10.7418C13.3396 10.7305 13.3313 10.7182 13.3211 10.7079C13.3077 10.6942 13.2924 10.6828 13.2776 10.6705C13.2647 10.6597 13.2527 10.648 13.239 10.6385C13.2238 10.6282 13.2071 10.6203 13.191 10.6115C13.1761 10.6033 13.1618 10.594 13.1462 10.5872C13.1299 10.5802 13.1124 10.5758 13.0954 10.5703C13.0782 10.5648 13.0615 10.5581 13.0439 10.5543C13.0291 10.5511 13.0138 10.5504 12.9986 10.5484C12.9771 10.5455 12.956 10.5423 12.9343 10.5419C12.9314 10.5419 12.9286 10.541 12.9258 10.541C12.9134 10.541 12.9017 10.5438 12.8896 10.5446C12.868 10.546 12.8467 10.5472 12.8253 10.551C12.8076 10.5542 12.7911 10.5597 12.7741 10.5645C12.7566 10.5695 12.7391 10.5739 12.7219 10.5806C12.7022 10.5885 12.6838 10.5987 12.6651 10.6088C12.654 10.6147 12.6424 10.6185 12.6316 10.6253C12.6292 10.6268 12.6272 10.629 12.6248 10.6306C12.6067 10.6423 12.5906 10.6563 12.574 10.67C12.5622 10.6797 12.5494 10.6886 12.5386 10.6992C12.5255 10.712 12.5147 10.7267 12.503 10.7407C12.4918 10.7542 12.4795 10.7668 12.4696 10.7813C12.4596 10.7959 12.452 10.8121 12.4433 10.8278C12.4348 10.8431 12.4252 10.8579 12.4182 10.874C12.4112 10.8903 12.407 10.9076 12.4014 10.9245C12.3957 10.9416 12.3892 10.9585 12.3854 10.9761C12.3822 10.991 12.3814 11.0067 12.3795 11.022C12.3766 11.0432 12.3734 11.0641 12.3731 11.0856C12.3731 11.0885 12.3722 11.0912 12.3722 11.0942V22.9799C12.3722 23.5312 11.9238 23.9797 11.3723 23.9797C10.8209 23.9797 10.3726 23.5312 10.3726 22.9799V16.487C10.3726 16.1814 10.1248 15.9336 9.81918 15.9336C9.5135 15.9336 9.26574 16.1812 9.26574 16.487V22.9799C9.26574 23.2465 9.15874 23.4965 8.9771 23.6811L7.99867 23.0644C7.76778 22.9182 7.51957 22.8224 7.26664 22.7697L7.26725 22.7698ZM26.1265 25.5063C25.0496 25.7566 24.0442 26.133 23.137 26.6253C21.0812 27.741 19.5794 29.7782 19.0001 32.225C18.4207 29.7782 16.9189 27.741 14.8633 26.6253C13.9562 26.133 12.9508 25.7566 11.8738 25.5063L11.1936 25.0776C11.2528 25.0826 11.3124 25.0868 11.3729 25.0868C12.5345 25.0868 13.4793 24.1418 13.4793 22.9802V13.0195L15.2286 15.8103V19.4737C15.2286 20.1392 15.7233 20.6895 16.3638 20.7807V23.4918C16.3638 24.3713 17.0793 25.0868 17.9588 25.0868C18.3569 25.0868 18.7204 24.9392 19.0001 24.6972C19.2798 24.9393 19.6435 25.0868 20.0415 25.0868C20.921 25.0868 21.6363 24.3713 21.6363 23.4918V20.7807C22.2769 20.6898 22.7719 20.1392 22.7719 19.4737V15.7517L24.4855 13.361L23.3674 18.8681C23.3344 19.0308 23.3762 19.1998 23.4812 19.3284C23.5863 19.457 23.7436 19.5316 23.9097 19.5316H24.876V23.3479C24.876 24.3067 25.6561 25.0868 26.6149 25.0868C26.6811 25.0868 26.7462 25.0822 26.8106 25.0749L26.1262 25.5063H26.1265Z" fill="#3B9E29"/>
<path d="M19.0003 13.0182C21.2956 13.0182 21.4878 11.7688 21.4878 10.4891C21.4878 8.96162 20.3487 7.67129 19.0003 7.67129C17.6519 7.67129 16.513 8.96162 16.513 10.4891C16.513 11.7688 16.7049 13.0182 19.0003 13.0182ZM19.0003 8.778C19.7229 8.778 20.3809 9.59348 20.3809 10.4891C20.3809 11.5529 20.3809 11.9115 19.0003 11.9115C17.6197 11.9115 17.6197 11.5531 17.6197 10.4891C17.6197 9.59363 18.2777 8.778 19.0003 8.778ZM27.8003 6.78254C30.7023 6.78254 30.9426 5.26969 30.9426 3.58446C30.9426 1.64145 29.5036 0 27.8003 0C26.097 0 24.6582 1.64145 24.6582 3.58446C24.6582 5.26969 24.8985 6.78254 27.8003 6.78254ZM27.8003 1.10671C28.8847 1.10671 29.8358 2.2645 29.8358 3.58446C29.8358 4.97678 29.8358 5.67568 27.8003 5.67568C25.7649 5.67568 25.7649 4.97678 25.7649 3.58446C25.7649 2.2645 26.716 1.10671 27.8003 1.10671ZM9.81963 6.78254C12.7216 6.78254 12.9619 5.26969 12.9619 3.58446C12.9619 1.64145 11.5229 0 9.81963 0C8.11632 0 6.67749 1.64145 6.67749 3.58446C6.67749 5.26969 6.9178 6.78254 9.81963 6.78254ZM9.81963 1.10671C10.904 1.10671 11.8551 2.2645 11.8551 3.58446C11.8551 4.97678 11.8551 5.67568 9.81963 5.67568C7.7842 5.67568 7.7842 4.97678 7.7842 3.58446C7.7842 2.2645 8.73527 1.10671 9.81963 1.10671Z" fill="#3B9E29"/>
</svg>
