<svg width="18" height="20" viewBox="0 0 18 20" fill="none" xmlns="http://www.w3.org/2000/svg">
<path d="M2.71168 11.8022C1.71674 11.8022 0.908447 10.9939 0.908447 10.0005C0.908447 9.00706 1.71674 8.19727 2.71168 8.19727C3.70662 8.19727 4.51491 9.00706 4.51491 10.0005C4.51491 10.9939 3.70662 11.8022 2.71168 11.8022Z" fill="#3B9E29"/>
<path d="M9.45423 11.8022C8.45929 11.8022 7.651 10.9939 7.651 10.0005C7.651 9.00706 8.45929 8.19727 9.45423 8.19727C10.4492 8.19727 11.2575 9.00706 11.2575 10.0005C11.2575 10.9939 10.4492 11.8022 9.45423 11.8022Z" fill="#3B9E29"/>
<path d="M16.1968 11.8022C15.2018 11.8022 14.3936 10.9939 14.3936 10.0005C14.3936 9.00706 15.2018 8.19727 16.1968 8.19727C17.1917 8.19727 18 9.00706 18 10.0005C18 10.9939 17.1917 11.8022 16.1968 11.8022Z" fill="#3B9E29"/>
</svg>
