<svg width="32" height="39" viewBox="0 0 32 39" fill="none" xmlns="http://www.w3.org/2000/svg">
<path d="M21.6352 9.46322C21.2884 9.11672 20.8275 8.92563 20.3372 8.92563C19.8469 8.92563 19.3859 9.11672 19.0394 9.46322C18.6926 9.81001 18.5015 10.2709 18.5015 10.7612C18.5015 11.2515 18.6926 11.7125 19.0391 12.059L22.1662 15.1859C22.5127 15.5324 22.9739 15.7235 23.4642 15.7235C23.9545 15.7235 24.4152 15.5324 24.7619 15.1859L31.4429 8.505C31.7897 8.15821 31.9805 7.69728 31.9805 7.20728C31.9805 6.71698 31.7897 6.25605 31.4429 5.90925C31.0964 5.56246 30.6351 5.37166 30.1449 5.37166C29.6546 5.37166 29.1936 5.56246 28.8471 5.90925L28.1105 6.64582C27.5682 6.23121 26.9689 5.89703 26.3312 5.65362V4.81861C26.3312 3.80633 25.5078 2.98292 24.4959 2.98292H18.7403V2.34569C18.7403 1.05228 17.688 0 16.3945 0H9.97587C8.68246 0 7.63018 1.05228 7.63018 2.34569V4.99594C7.63018 5.71452 8.21484 6.29925 8.93341 6.29925H17.437C18.1556 6.29925 18.7403 5.71452 18.7403 4.99594V4.09996H24.4956C24.8917 4.09996 25.2141 4.42237 25.2141 4.81853V5.33292C24.7513 5.23879 24.2801 5.19111 23.8078 5.19061C19.8957 5.19061 16.7129 8.37332 16.7129 12.2855C16.7129 16.1975 19.8957 19.3803 23.8078 19.3803C24.285 19.3803 24.7555 19.3323 25.2141 19.2403V36.2345C25.2141 36.6308 24.8917 36.9528 24.4956 36.9528H1.8747C1.47846 36.9528 1.15642 36.6308 1.15642 36.2345V4.81861C1.15642 4.42244 1.47846 4.10003 1.8747 4.10003H5.58749C5.73563 4.10003 5.8777 4.04119 5.98245 3.93644C6.0872 3.83169 6.14605 3.68962 6.14605 3.54148C6.14605 3.39334 6.0872 3.25127 5.98245 3.14652C5.8777 3.04177 5.73563 2.98292 5.58749 2.98292H1.8747C0.862719 2.98292 0.0393066 3.80633 0.0393066 4.81861V36.2346C0.0393066 37.2466 0.862719 38.07 1.8747 38.07H24.4959C25.5078 38.07 26.3313 37.2466 26.3313 36.2346V18.9174C27.2309 18.5752 28.0514 18.0531 28.7426 17.3832C30.0693 16.0986 30.8353 14.3762 30.8985 12.5333C30.9036 12.3852 30.8496 12.2412 30.7485 12.133C30.6474 12.0247 30.5075 11.961 30.3595 11.9558C30.0533 11.9457 29.7929 12.1865 29.7821 12.4949C29.6929 15.089 27.9871 17.2307 25.6446 17.978C25.6126 17.9853 25.5814 17.9955 25.5513 18.0085C25.0001 18.1743 24.4148 18.2633 23.8078 18.2633C20.5117 18.2633 17.83 15.5816 17.83 12.2855C17.83 8.98943 20.5117 6.30772 23.8078 6.30772C25.0666 6.30719 26.2934 6.70479 27.3127 7.44365L23.4642 11.2924L21.6352 9.46322ZM17.6232 4.99594C17.6232 5.02039 17.6184 5.04461 17.609 5.06719C17.5997 5.08978 17.5859 5.11031 17.5687 5.1276C17.5514 5.14489 17.5308 5.1586 17.5082 5.16796C17.4857 5.17731 17.4614 5.18213 17.437 5.18213H8.93348C8.90903 5.18213 8.88482 5.17731 8.86223 5.16796C8.83965 5.1586 8.81912 5.14489 8.80183 5.1276C8.78454 5.11031 8.77083 5.08978 8.76147 5.06719C8.75211 5.04461 8.7473 5.02039 8.7473 4.99594V2.34569C8.7473 1.66809 9.29827 1.11704 9.97595 1.11704H16.3946C17.072 1.11704 17.6232 1.66802 17.6232 2.34569V4.99594ZM29.6372 6.69928C29.7037 6.63231 29.7828 6.57921 29.87 6.54306C29.9571 6.50692 30.0506 6.48844 30.1449 6.4887C30.2394 6.4885 30.3329 6.507 30.4202 6.54314C30.5074 6.57929 30.5866 6.63235 30.6532 6.69928C30.9332 6.97923 30.9332 7.43525 30.6532 7.71527L23.972 14.3962C23.9054 14.4631 23.8262 14.5162 23.739 14.5524C23.6518 14.5885 23.5583 14.607 23.464 14.6068C23.3696 14.607 23.2761 14.5885 23.1889 14.5524C23.1017 14.5162 23.0225 14.4631 22.956 14.3962L19.8289 11.2692C19.762 11.2027 19.709 11.1235 19.6729 11.0363C19.6368 10.9491 19.6184 10.8556 19.6187 10.7612C19.6184 10.6668 19.6368 10.5733 19.673 10.4861C19.7091 10.3989 19.7622 10.3198 19.8292 10.2532C19.8958 10.1863 19.9749 10.1332 20.0621 10.097C20.1493 10.0609 20.2428 10.0424 20.3372 10.0426C20.4316 10.0424 20.5251 10.0609 20.6123 10.0971C20.6995 10.1332 20.7787 10.1863 20.8452 10.2532L23.0692 12.4772C23.1211 12.5291 23.1826 12.5702 23.2504 12.5983C23.3181 12.6264 23.3908 12.6408 23.4641 12.6408C23.5374 12.6408 23.6101 12.6264 23.6778 12.5983C23.7456 12.5702 23.8072 12.5291 23.859 12.4772L29.6372 6.69928Z" fill="#3B9E29"/>
<path d="M15.2403 14.0191H8.43472C8.36138 14.0191 8.28877 14.0335 8.22102 14.0616C8.15328 14.0897 8.09173 14.1308 8.03988 14.1827C7.98804 14.2346 7.94693 14.2961 7.91889 14.3639C7.89084 14.4317 7.87643 14.5043 7.87646 14.5776C7.87648 14.7257 7.9353 14.8676 8.03999 14.9723C8.14469 15.077 8.28667 15.1358 8.43472 15.1358H15.2403C15.3884 15.1358 15.5304 15.077 15.6351 14.9723C15.7399 14.8677 15.7987 14.7257 15.7988 14.5776C15.7988 14.4295 15.74 14.2874 15.6352 14.1827C15.5305 14.0779 15.3884 14.0191 15.2403 14.0191H15.2403ZM7.36876 8.25391H3.61061C3.4636 8.2556 3.32318 8.31519 3.21982 8.41975C3.11646 8.52431 3.0585 8.6654 3.0585 8.81243C3.0585 8.95945 3.11646 9.10054 3.21982 9.2051C3.32318 9.30966 3.4636 9.36925 3.61061 9.37095H7.36876C7.51577 9.36925 7.65619 9.30966 7.75955 9.2051C7.8629 9.10054 7.92087 8.95945 7.92087 8.81243C7.92087 8.6654 7.8629 8.52431 7.75955 8.41975C7.65619 8.31519 7.51577 8.2556 7.36876 8.25391ZM8.43472 17.7269H15.2403C15.3885 17.7269 15.5305 17.6681 15.6352 17.5633C15.74 17.4586 15.7988 17.3165 15.7988 17.1684C15.7987 17.0203 15.7398 16.8783 15.6351 16.7736C15.5304 16.669 15.3883 16.6102 15.2403 16.6102H8.43472C8.28667 16.6102 8.14469 16.669 8.03999 16.7737C7.9353 16.8784 7.87648 17.0203 7.87646 17.1684C7.87643 17.2417 7.89084 17.3143 7.91889 17.3821C7.94693 17.4499 7.98804 17.5114 8.03988 17.5633C8.09173 17.6152 8.15328 17.6563 8.22102 17.6844C8.28877 17.7125 8.36138 17.7269 8.43472 17.7269ZM17.5912 20.7929H8.43472C8.36138 20.7929 8.28877 20.8074 8.22102 20.8355C8.15328 20.8635 8.09173 20.9047 8.03988 20.9566C7.98804 21.0084 7.94693 21.07 7.91889 21.1378C7.89084 21.2055 7.87643 21.2781 7.87646 21.3515C7.87643 21.4248 7.89084 21.4974 7.91889 21.5652C7.94693 21.633 7.98804 21.6945 8.03988 21.7464C8.09173 21.7983 8.15328 21.8394 8.22102 21.8675C8.28877 21.8956 8.36138 21.91 8.43472 21.91H17.5912C17.7394 21.91 17.8814 21.8512 17.9862 21.7464C18.0909 21.6417 18.1498 21.4996 18.1498 21.3515C18.1498 21.2033 18.0909 21.0613 17.9862 20.9565C17.8814 20.8518 17.7394 20.7929 17.5912 20.7929ZM8.43472 24.5012H13.0131C13.0864 24.5012 13.159 24.4867 13.2268 24.4586C13.2945 24.4306 13.3561 24.3894 13.4079 24.3375C13.4598 24.2857 13.5009 24.2241 13.5289 24.1563C13.557 24.0886 13.5714 24.0159 13.5713 23.9426C13.5714 23.8693 13.557 23.7967 13.5289 23.7289C13.5009 23.6611 13.4598 23.5996 13.4079 23.5477C13.3561 23.4958 13.2945 23.4547 13.2268 23.4266C13.159 23.3985 13.0864 23.3841 13.0131 23.3841H8.43472C8.36138 23.3841 8.28877 23.3985 8.22102 23.4266C8.15328 23.4547 8.09173 23.4958 8.03988 23.5477C7.98804 23.5996 7.94693 23.6611 7.91889 23.7289C7.89084 23.7967 7.87643 23.8693 7.87646 23.9426C7.87643 24.0159 7.89084 24.0886 7.91889 24.1563C7.94693 24.2241 7.98804 24.2857 8.03988 24.3375C8.09173 24.3894 8.15328 24.4306 8.22102 24.4586C8.28877 24.4867 8.36138 24.5012 8.43472 24.5012ZM8.43472 28.6912H15.2403C15.3873 28.6895 15.5278 28.6299 15.6311 28.5253C15.7345 28.4208 15.7924 28.2797 15.7924 28.1327C15.7924 27.9856 15.7345 27.8445 15.6311 27.74C15.5278 27.6354 15.3873 27.5758 15.2403 27.5741H8.43472C8.12629 27.5741 7.87646 27.8242 7.87646 28.1326C7.87646 28.441 8.12629 28.6912 8.43472 28.6912ZM8.43472 31.282H17.5912C17.7393 31.282 17.8814 31.2231 17.9861 31.1184C18.0909 31.0136 18.1497 30.8716 18.1497 30.7235C18.1496 30.5754 18.0908 30.4334 17.9861 30.3287C17.8813 30.224 17.7393 30.1652 17.5912 30.1652H8.43472C8.28666 30.1652 8.14466 30.224 8.03997 30.3287C7.93527 30.4334 7.87646 30.5754 7.87646 30.7235C7.87643 30.7968 7.89084 30.8694 7.91889 30.9372C7.94693 31.0049 7.98804 31.0665 8.03988 31.1184C8.09173 31.1702 8.15328 31.2114 8.22102 31.2395C8.28877 31.2676 8.36138 31.282 8.43472 31.282ZM4.79598 13.5349C3.55202 13.5349 2.54004 14.5468 2.54004 15.7908C2.54004 17.0348 3.55202 18.0467 4.79598 18.0467C6.03995 18.0467 7.05193 17.0348 7.05193 15.7908C7.05193 14.5468 6.03995 13.5349 4.79598 13.5349ZM4.79598 16.9296C4.16798 16.9296 3.65708 16.4188 3.65708 15.7908C3.65708 15.1628 4.16798 14.652 4.79598 14.652C5.42392 14.652 5.93481 15.1628 5.93481 15.7908C5.93481 16.4188 5.42392 16.9296 4.79598 16.9296ZM4.79598 20.391C3.55202 20.391 2.54004 21.4032 2.54004 22.6469C2.54004 23.8909 3.55202 24.9028 4.79598 24.9028C6.03995 24.9028 7.05193 23.8909 7.05193 22.6469C7.05193 21.4032 6.03995 20.391 4.79598 20.391ZM4.79598 23.786C4.16798 23.786 3.65708 23.2752 3.65708 22.6472C3.65708 22.0189 4.16798 21.5081 4.79598 21.5081C5.42392 21.5081 5.93481 22.0189 5.93481 22.6472C5.93481 23.2751 5.42392 23.786 4.79598 23.786ZM4.79598 27.1721C3.55202 27.1721 2.54004 28.1841 2.54004 29.428C2.54004 30.672 3.55202 31.684 4.79598 31.684C6.03995 31.684 7.05193 30.672 7.05193 29.428C7.05193 28.1841 6.03995 27.1721 4.79598 27.1721ZM4.79598 30.5669C4.16798 30.5669 3.65708 30.056 3.65708 29.428C3.65708 28.8 4.16798 28.2892 4.79598 28.2892C5.42392 28.2892 5.93481 28.8 5.93481 29.428C5.93481 30.056 5.42392 30.5669 4.79598 30.5669Z" fill="#3B9E29"/>
</svg>
