<svg width="38" height="38" viewBox="0 0 38 38" fill="none" xmlns="http://www.w3.org/2000/svg">
<path d="M17.2532 30.0376H17.1567L17.0774 29.7213C16.7254 28.3188 16.3614 26.8685 16.0247 25.4389C15.5085 23.247 14.9797 21.8489 12.0387 21.0167L9.17353 18.9586C8.70625 18.6229 8.13454 18.4897 7.56388 18.5832L7.53872 18.5875L5.62113 14.0612C4.34701 11.0536 2.70255 11.4006 2.22896 11.5786C1.06061 12.0177 0.375196 13.5668 0.790969 14.8287C0.790969 14.8287 3.2695 22.3524 3.29593 22.4334C3.69025 23.6438 4.18098 25.1501 5.30406 25.9219L8.61333 28.1964C8.9868 28.453 9.21932 28.792 9.3242 29.233L9.51553 30.0373H9.08699C8.73534 30.0373 8.40566 30.1735 8.15874 30.4205C7.91174 30.6678 7.77592 30.9976 7.77629 31.3495L7.77822 33.3569C7.77896 34.0789 8.36692 34.6663 9.08892 34.6664L17.255 34.667C17.6068 34.667 17.9365 34.5308 18.1834 34.2837C18.4303 34.0365 18.5661 33.7067 18.5658 33.3549L18.5639 31.3474C18.5632 30.6252 17.9753 30.0378 17.2532 30.0376ZM10.3351 28.9923C10.1702 28.2994 9.78895 27.7434 9.20188 27.3399L5.89262 25.0655C5.05988 24.4931 4.62956 23.1726 4.28385 22.1114C4.25706 22.0292 1.77786 14.5034 1.77786 14.5034C1.51809 13.7149 2.00979 12.7708 2.59448 12.551C3.27396 12.2956 4.04799 13.0115 4.66437 14.4664L6.58775 19.0064C6.42387 19.1338 6.27926 19.2841 6.15839 19.4528C5.82278 19.92 5.68948 20.4916 5.783 21.0624C5.87651 21.6333 6.18541 22.1324 6.65262 22.468L10.5598 25.2745C10.6717 25.3549 10.811 25.3875 10.947 25.3652C11.083 25.3429 11.2045 25.2675 11.2849 25.1556C11.3653 25.0437 11.3979 24.9044 11.3756 24.7684C11.3533 24.6324 11.2779 24.5109 11.166 24.4305L7.25884 21.624C7.01703 21.4503 6.85709 21.1912 6.8084 20.8943C6.75972 20.5975 6.82859 20.3008 7.00226 20.059C7.17593 19.8171 7.43511 19.6572 7.73198 19.6085C8.02878 19.5601 8.32551 19.6287 8.56731 19.8024L11.5073 21.9143C11.5574 21.9502 11.6135 21.977 11.6729 21.9932C14.2044 22.6881 14.5428 23.6792 15.0134 25.677C15.3518 27.1139 15.7167 28.568 16.0696 29.9742L16.0855 30.0375L10.5837 30.0372L10.3351 28.9923ZM17.4483 33.549C17.4229 33.5743 17.3928 33.5942 17.3596 33.6077C17.3264 33.6212 17.2909 33.628 17.2551 33.6277L9.08907 33.6272C9.01708 33.627 8.94806 33.5984 8.89712 33.5475C8.84619 33.4966 8.81748 33.4277 8.81728 33.3557L8.81535 31.3483C8.81528 31.2742 8.84318 31.2055 8.8938 31.1549C8.94442 31.1042 9.01307 31.0763 9.08707 31.0763L17.2531 31.0767C17.3251 31.0768 17.3941 31.1055 17.445 31.1563C17.4959 31.2072 17.5247 31.2762 17.5248 31.3482L17.5268 33.3556C17.5271 33.3914 17.5204 33.427 17.5069 33.4602C17.4935 33.4934 17.4735 33.5236 17.4483 33.549ZM35.7713 11.5786C35.2977 11.4006 33.6533 11.0534 32.3791 14.0612L30.4615 18.5874L30.4364 18.5831C29.8656 18.4895 29.2939 18.6229 28.8267 18.9585L25.9616 21.0166C23.0206 21.8489 22.4918 23.2469 21.9755 25.4388C21.6388 26.8684 21.2748 28.3187 20.9228 29.7213L20.8435 30.0376H20.7469C20.0248 30.0377 19.4369 30.6252 19.4363 31.3472L19.4343 33.3547C19.4341 33.7064 19.5699 34.0363 19.8168 34.2835C20.0637 34.5306 20.3935 34.6667 20.7453 34.6667L28.9113 34.6662C29.6333 34.6661 30.2213 34.0786 30.222 33.3566L30.224 31.3492C30.2243 30.9974 30.0885 30.6675 29.8415 30.4203C29.5946 30.1732 29.265 30.0371 28.9133 30.0371H28.4848L28.6761 29.2327C28.781 28.7919 29.0135 28.4528 29.3869 28.1961L32.6963 25.9217C33.8194 25.1499 34.3102 23.6435 34.7045 22.433C34.7308 22.352 37.2094 14.8284 37.2094 14.8284C37.625 13.5667 36.9396 12.0176 35.7713 11.5786ZM28.9131 31.0763C28.9871 31.0763 29.0558 31.1042 29.1064 31.1549C29.157 31.2055 29.1849 31.2742 29.1848 31.3483L29.1829 33.3557C29.1827 33.4277 29.154 33.4966 29.1031 33.5475C29.0522 33.5984 28.9832 33.627 28.9112 33.6272L20.7452 33.6277C20.7094 33.628 20.6738 33.6213 20.6406 33.6077C20.6074 33.5942 20.5773 33.5743 20.5519 33.549C20.5266 33.5236 20.5067 33.4934 20.4932 33.4602C20.4798 33.427 20.473 33.3915 20.4734 33.3557L20.4753 31.3482C20.4755 31.2762 20.5042 31.2072 20.5551 31.1563C20.6061 31.1055 20.6751 31.0768 20.7471 31.0767L28.9131 31.0763ZM36.2224 14.5034C36.2224 14.5034 33.7432 22.0291 33.7164 22.1113C33.3707 23.1725 32.9405 24.4932 32.1076 25.0656L28.7983 27.3399C28.2112 27.7435 27.83 28.2994 27.6651 28.9924L27.4166 30.0373L21.9147 30.0376L21.9306 29.9743C22.2835 28.5682 22.6485 27.1141 22.9869 25.6771C23.4574 23.6794 23.7959 22.6883 26.3273 21.9934C26.3868 21.9771 26.4428 21.9503 26.4929 21.9144L29.4329 19.8026C29.6747 19.6288 29.9715 19.5603 30.2682 19.6087C30.5651 19.6573 30.8242 19.8174 30.9979 20.0592C31.1716 20.301 31.2405 20.5976 31.1918 20.8945C31.1431 21.1914 30.9832 21.4505 30.7414 21.6241L26.8342 24.4306C26.7223 24.511 26.6469 24.6326 26.6246 24.7686C26.6023 24.9046 26.6349 25.0438 26.7153 25.1558C26.7957 25.2677 26.9172 25.3431 27.0532 25.3654C27.1892 25.3877 27.3285 25.355 27.4404 25.2747L31.3475 22.4681C31.8147 22.1326 32.1236 21.6334 32.2172 21.0626C32.3108 20.4918 32.1774 19.9201 31.8419 19.4529C31.7209 19.2843 31.5763 19.134 31.4124 19.0066L33.3358 14.4666C33.9521 13.0117 34.7258 12.2962 35.4057 12.5512C35.9905 12.7709 36.4822 13.7149 36.2224 14.5034ZM20.1045 20.2952C21.0485 19.3771 21.9901 18.5265 22.9008 17.7039C26.3275 14.6086 29.2869 11.9354 29.2869 8.24049C29.2869 5.53395 27.0295 3.33203 24.2549 3.33203C21.9909 3.33203 20.7667 4.35892 19.7424 6.0687C18.7179 4.35892 17.4937 3.33203 15.2299 3.33203C12.4552 3.33203 10.1978 5.53395 10.1978 8.24049C10.1978 11.9354 13.1572 14.6086 16.5839 17.7039C17.4946 18.5265 18.4363 19.3771 19.3802 20.2952C19.481 20.3932 19.6117 20.4423 19.7424 20.4423C19.873 20.4423 20.0037 20.3932 20.1045 20.2952ZM17.2803 16.9328C13.9038 13.8828 11.2368 11.4738 11.2368 8.24049C11.2368 6.10692 13.0281 4.37109 15.2298 4.37109C17.1014 4.37109 18.1234 5.1305 19.2803 7.38074C19.324 7.46564 19.3902 7.53687 19.4717 7.58659C19.5532 7.63632 19.6469 7.66263 19.7424 7.66263C19.8378 7.66263 19.9315 7.63632 20.013 7.58659C20.0945 7.53687 20.1607 7.46564 20.2044 7.38074C21.3612 5.13057 22.3833 4.37109 24.2549 4.37109C26.4567 4.37109 28.2479 6.10692 28.2479 8.24049C28.2479 11.4738 25.5809 13.8828 22.2044 16.9328C21.4026 17.6571 20.5769 18.403 19.7424 19.2011C18.9078 18.403 18.0821 17.6571 17.2803 16.9328Z" fill="#3B9E29"/>
</svg>
